<svg width="37" height="37" viewBox="0 0 37 37" fill="none" xmlns="http://www.w3.org/2000/svg">
<path d="M5.6618 19.4401L11.2695 25.0478C13.572 27.3503 22.7448 37.464 25.0596 35.1615L35.161 25.0478C37.4635 22.7453 27.3621 13.5724 25.0596 11.2575L19.4396 5.66217C18.2636 4.48616 16.6419 3.85482 14.9832 3.94148L8.79368 4.23857C6.31788 4.34999 4.34962 6.31826 4.22583 8.7817L3.92874 14.9713C3.85447 16.6424 4.48579 18.2641 5.6618 19.4401Z" stroke="#053F79" stroke-width="2" stroke-linecap="round" stroke-linejoin="round"/>
<path d="M12.2598 15.3551C13.969 15.3551 15.3545 13.9695 15.3545 12.2603C15.3545 10.5511 13.969 9.16553 12.2598 9.16553C10.5506 9.16553 9.16504 10.5511 9.16504 12.2603C9.16504 13.9695 10.5506 15.3551 12.2598 15.3551Z" stroke="#293241" stroke-width="2" stroke-linecap="round"/>
</svg>
