<svg width="36" height="36" viewBox="0 0 36 36" fill="none" xmlns="http://www.w3.org/2000/svg">
<g clip-path="url(#clip0_354_350)">
<path d="M6.59668 3.06934C8.98149 1.94728 11.8237 2.55984 13.7969 5.1084C15.8328 7.73814 16.3823 11.5041 15.4082 14.7197L15.333 14.9668L15.4912 15.1709L25.7646 28.4414L25.7871 28.4697L25.8125 28.4951C26.004 28.6807 26.4778 29.2473 26.8311 29.834C27.0082 30.1282 27.1353 30.3958 27.1904 30.6025C27.2211 30.7175 27.2194 30.7746 27.2168 30.7969H27.2178L27.2012 30.8193L23.9199 35.0576C23.7885 34.9767 23.609 34.825 23.4004 34.6074C22.9521 34.1399 22.5023 33.5313 22.2656 33.2256L11.9912 19.9541L11.7383 19.6279L11.3701 19.8145C9.01795 21.0032 6.22176 20.3765 4.20117 17.7666C2.23477 15.2265 1.61265 11.4959 2.51953 8.31543L6.91406 13.8633L7.31055 14.3633L7.70117 13.8584L11.0879 9.4834L11.3252 9.17773L11.0879 8.87109L6.59668 3.06934Z" fill="#293241" stroke="white"/>
<g clip-path="url(#clip1_354_350)">
<path d="M29.4033 3.06934C27.0185 1.94728 24.1763 2.55984 22.2031 5.1084C20.1672 7.73814 19.6177 11.5041 20.5918 14.7197L20.667 14.9668L20.5088 15.1709L10.2354 28.4414L10.2129 28.4697L10.1875 28.4951C9.99897 28.6778 9.38115 29.4267 8.87891 30.21C8.62853 30.6004 8.42647 30.9707 8.31934 31.2617C8.26957 31.3969 8.2515 31.4913 8.24707 31.5488L12.0625 35.0693C12.1954 34.9918 12.3812 34.8352 12.5996 34.6074C13.0479 34.1399 13.4977 33.5313 13.7344 33.2256L24.0088 19.9541L24.2617 19.6279L24.6299 19.8145C26.9821 21.0032 29.7782 20.3765 31.7988 17.7666C33.7652 15.2265 34.3874 11.4959 33.4805 8.31543L29.0859 13.8633L28.6895 14.3633L28.2988 13.8584L24.9121 9.4834L24.6748 9.17773L24.9121 8.87109L29.4033 3.06934Z" fill="#293241" stroke="white"/>
</g>
</g>
<defs>
<clipPath id="clip0_354_350">
<rect width="35" height="35" fill="white" transform="translate(0.5 0.5)"/>
</clipPath>
<clipPath id="clip1_354_350">
<rect width="27.0968" height="35" fill="white" transform="matrix(-1 0 0 1 35.5 0.5)"/>
</clipPath>
</defs>
</svg>
