<svg width="38" height="40" viewBox="0 0 38 40" fill="none" xmlns="http://www.w3.org/2000/svg">
<path d="M31.1857 9.40135H37.0694L29.8516 1.87695V8.01052C29.8516 8.37939 29.9921 8.73315 30.2423 8.99398C30.4925 9.25482 30.8319 9.40135 31.1857 9.40135Z" fill="white"/>
<path d="M30.8291 11.6269C29.7676 11.6269 28.7495 11.1873 27.9989 10.4048C27.2483 9.6223 26.8266 8.56101 26.8266 7.4544V0.500244H12.1509C11.0894 0.500244 10.0713 0.939845 9.32073 1.72234C8.57012 2.50483 8.14844 3.56612 8.14844 4.67274V8.84523C10.1971 8.85027 12.2011 9.46984 13.9211 10.63C15.6411 11.7901 17.0046 13.4418 17.8486 15.3878C18.6926 17.3338 18.9816 19.4919 18.681 21.6045C18.3804 23.717 17.5029 25.6948 16.1534 27.3016V38.0527C16.1551 38.5277 16.0737 38.999 15.9132 39.4435H33.4974C34.5589 39.4435 35.577 39.0039 36.3276 38.2214C37.0782 37.4389 37.4999 36.3776 37.4999 35.271V11.6269H30.8291ZM17.4875 10.2361C17.4875 9.86719 17.6281 9.51343 17.8783 9.2526C18.1285 8.99177 18.4679 8.84523 18.8217 8.84523H22.8242C23.178 8.84523 23.5174 8.99177 23.7676 9.2526C24.0178 9.51343 24.1583 9.86719 24.1583 10.2361C24.1583 10.6049 24.0178 10.9587 23.7676 11.2195C23.5174 11.4804 23.178 11.6269 22.8242 11.6269H18.8217C18.4679 11.6269 18.1285 11.4804 17.8783 11.2195C17.6281 10.9587 17.4875 10.6049 17.4875 10.2361ZM30.8291 32.4894H20.1558C19.802 32.4894 19.4627 32.3428 19.2125 32.082C18.9623 31.8212 18.8217 31.4674 18.8217 31.0985C18.8217 30.7297 18.9623 30.3759 19.2125 30.1151C19.4627 29.8542 19.802 29.7077 20.1558 29.7077H30.8291C31.1829 29.7077 31.5223 29.8542 31.7725 30.1151C32.0227 30.3759 32.1633 30.7297 32.1633 31.0985C32.1633 31.4674 32.0227 31.8212 31.7725 32.082C31.5223 32.3428 31.1829 32.4894 30.8291 32.4894ZM30.8291 25.5352H22.8242C22.4703 25.5352 22.131 25.3887 21.8808 25.1278C21.6306 24.867 21.49 24.5132 21.49 24.1444C21.49 23.7755 21.6306 23.4217 21.8808 23.1609C22.131 22.9001 22.4703 22.7535 22.8242 22.7535H30.8291C31.1829 22.7535 31.5223 22.9001 31.7725 23.1609C32.0227 23.4217 32.1633 23.7755 32.1633 24.1444C32.1633 24.5132 32.0227 24.867 31.7725 25.1278C31.5223 25.3887 31.1829 25.5352 30.8291 25.5352ZM30.8291 18.581H22.8242C22.4703 18.581 22.131 18.4345 21.8808 18.1737C21.6306 17.9129 21.49 17.5591 21.49 17.1902C21.49 16.8213 21.6306 16.4676 21.8808 16.2068C22.131 15.9459 22.4703 15.7994 22.8242 15.7994H30.8291C31.1829 15.7994 31.5223 15.9459 31.7725 16.2068C32.0227 16.4676 32.1633 16.8213 32.1633 17.1902C32.1633 17.5591 32.0227 17.9129 31.7725 18.1737C31.5223 18.4345 31.1829 18.581 30.8291 18.581Z" fill="white"/>
<path d="M3.16797 30.1526V38.6088C3.16928 38.8834 3.24854 39.1515 3.39574 39.3792C3.54294 39.6069 3.7515 39.7841 3.99515 39.8884C4.23811 39.9949 4.50589 40.024 4.76471 39.972C5.02352 39.9201 5.26176 39.7893 5.44938 39.5963L8.5046 36.3974L11.5598 39.5963C11.6845 39.7252 11.8323 39.8272 11.9949 39.8964C12.1574 39.9656 12.3315 40.0007 12.5071 39.9997C12.6821 40.0044 12.8557 39.9663 13.014 39.8884C13.2577 39.7841 13.4663 39.6069 13.6135 39.3792C13.7607 39.1515 13.8399 38.8834 13.8412 38.6088V30.1526C12.2209 31.136 10.3795 31.6541 8.5046 31.6541C6.62968 31.6541 4.78827 31.136 3.16797 30.1526Z" fill="white"/>
<path d="M8.50494 28.8733C12.9259 28.8733 16.5099 25.1371 16.5099 20.5283C16.5099 15.9195 12.9259 12.1833 8.50494 12.1833C4.08393 12.1833 0.5 15.9195 0.5 20.5283C0.5 25.1371 4.08393 28.8733 8.50494 28.8733Z" fill="white"/>
</svg>
