<svg width="60" height="60" viewBox="0 0 60 60" fill="none" xmlns="http://www.w3.org/2000/svg">
<rect width="60" height="60" rx="30" fill="white"/>
<path d="M47.1814 25.5225H37.0111C36.8363 25.5225 36.6933 25.6836 36.6933 25.8806V28.0291C36.6933 28.226 36.8363 28.3872 37.0111 28.3872H47.1814C47.3562 28.3872 47.4992 28.226 47.4992 28.0291V25.8806C47.4992 25.6836 47.3562 25.5225 47.1814 25.5225ZM41.8579 31.61H37.0111C36.8363 31.61 36.6933 31.7711 36.6933 31.9681V34.1166C36.6933 34.3135 36.8363 34.4747 37.0111 34.4747H41.8579C42.0327 34.4747 42.1757 34.3135 42.1757 34.1166V31.9681C42.1757 31.7711 42.0327 31.61 41.8579 31.61ZM28.6007 21.5164H26.8805C26.6342 21.5164 26.4355 21.7402 26.4355 22.0177V33.1184C26.4355 33.2796 26.5031 33.4273 26.6183 33.5213L32.5338 38.3823C32.7324 38.5434 33.0105 38.4987 33.1535 38.2749L34.1745 36.7038V36.6993C34.3175 36.4755 34.2738 36.1622 34.0752 36.001L29.0417 31.9009V22.0177C29.0457 21.7402 28.8431 21.5164 28.6007 21.5164Z" fill="#053F79"/>
<path d="M41.6125 37.2453H39.3163C39.0938 37.2453 38.8832 37.3751 38.7641 37.5899C38.2595 38.4896 37.6716 39.3222 36.9962 40.0831C35.8322 41.3946 34.4774 42.4241 32.9718 43.1403C31.4105 43.8833 29.7538 44.2593 28.0455 44.2593C26.3332 44.2593 24.6766 43.8833 23.1193 43.1403C21.6136 42.4241 20.2589 41.3946 19.0948 40.0831C17.9308 38.7716 17.0171 37.2453 16.3814 35.5488C15.722 33.7942 15.3882 31.9276 15.3882 29.9984C15.3882 28.0692 15.722 26.2072 16.3814 24.4481C17.0171 22.7516 17.9308 21.2253 19.0948 19.9138C20.2589 18.6023 21.6136 17.5728 23.1193 16.8566C24.6766 16.1136 26.3372 15.7376 28.0455 15.7376C29.7578 15.7376 31.4144 16.1136 32.9718 16.8566C34.4774 17.5728 35.8322 18.6023 36.9962 19.9138C37.6716 20.6747 38.2595 21.5073 38.7641 22.407C38.8832 22.6218 39.0938 22.7516 39.3163 22.7516H41.6125C41.8867 22.7516 42.0615 22.4294 41.9383 22.1563C39.3481 16.3508 34.0961 12.5775 28.2322 12.5014C19.6471 12.3805 12.5159 20.2987 12.5 29.9626C12.4841 39.6444 19.4484 47.5 28.0415 47.5C33.9808 47.5 39.3203 43.7132 41.9383 37.8406C42.0615 37.5675 41.8827 37.2453 41.6125 37.2453Z" fill="#053F79"/>
</svg>
