<svg width="60" height="60" viewBox="0 0 60 60" fill="none" xmlns="http://www.w3.org/2000/svg">
<rect width="60" height="60" rx="30" fill="white"/>
<path d="M42.2539 15.7813H33.8525C33.5913 15.7811 33.3406 15.8843 33.1553 16.0684L16.3594 32.8643C15.9916 33.2338 15.7852 33.734 15.7852 34.2554C15.7852 34.7768 15.9916 35.2769 16.3594 35.6465L24.3574 43.6445C24.727 44.0123 25.2272 44.2188 25.7485 44.2188C26.2699 44.2188 26.7701 44.0123 27.1397 43.6445L43.9287 26.8555C44.1128 26.6701 44.216 26.4194 44.2158 26.1582V17.75C44.2171 17.4917 44.1673 17.2357 44.0692 16.9967C43.9711 16.7577 43.8268 16.5405 43.6444 16.3575C43.4621 16.1745 43.2454 16.0294 43.0067 15.9305C42.7681 15.8316 42.5122 15.7809 42.2539 15.7813V15.7813Z" stroke="#053F79" stroke-width="3" stroke-linecap="round" stroke-linejoin="round"/>
<path d="M38.75 23.4375C38.3174 23.4375 37.8944 23.3092 37.5347 23.0688C37.175 22.8285 36.8946 22.4868 36.729 22.0871C36.5634 21.6874 36.5201 21.2476 36.6045 20.8232C36.6889 20.3989 36.8973 20.0091 37.2032 19.7032C37.5091 19.3973 37.8989 19.1889 38.3232 19.1045C38.7476 19.0201 39.1874 19.0634 39.5871 19.229C39.9868 19.3946 40.3285 19.675 40.5688 20.0347C40.8092 20.3944 40.9375 20.8174 40.9375 21.25C40.9375 21.8302 40.707 22.3866 40.2968 22.7968C39.8866 23.207 39.3302 23.4375 38.75 23.4375Z" fill="#053F79"/>
</svg>
