<svg width="60" height="60" viewBox="0 0 60 60" fill="none" xmlns="http://www.w3.org/2000/svg">
<rect width="60" height="60" rx="30" fill="white"/>
<path d="M17.0984 18.7545C17.2079 18.782 17.3078 18.8386 17.3877 18.9184L26.2992 27.8301L27.9118 26.2177L19.0001 17.306C18.9202 17.2259 18.8635 17.1257 18.836 17.016L18.2752 14.7802L14.557 12.6545L12.7363 14.4752L14.8626 18.1959L17.0984 18.7545Z" fill="#053F79"/>
<path d="M25.0244 39.0824L39.1658 24.9409C39.242 24.8647 39.3365 24.8096 39.4403 24.7808C39.5441 24.752 39.6535 24.7505 39.758 24.7766C41.6199 25.2537 43.5976 24.8403 45.1129 23.658C46.6285 22.4757 47.5101 20.6575 47.4999 18.7356C47.4999 18.6185 47.4965 18.5006 47.4889 18.3816L44.1997 21.6703C44.1179 21.7522 44.0149 21.8096 43.9022 21.8362C43.7895 21.8628 43.6717 21.8575 43.5619 21.8209L39.8209 20.5737C39.729 20.5433 39.6455 20.4918 39.5771 20.4234C39.5086 20.3551 39.457 20.2717 39.4263 20.1799L38.1795 16.4389C38.1047 16.2151 38.163 15.9679 38.3301 15.8009L41.6192 12.512C39.6385 12.3888 37.7183 13.2209 36.4533 14.7497C35.1883 16.2789 34.7312 18.3209 35.2232 20.2432C35.2495 20.3477 35.2482 20.4572 35.2195 20.5611C35.1907 20.6649 35.1356 20.7595 35.0594 20.8357L20.9182 34.9762C20.8417 35.052 20.7471 35.1068 20.6434 35.1356C20.5397 35.1643 20.4304 35.166 20.3258 35.1404C19.8334 35.0138 19.3271 34.9486 18.8186 34.9464C16.1334 34.9288 13.734 36.6216 12.8499 39.1577C11.9663 41.6936 12.7938 44.511 14.9087 46.1661C17.0236 47.8212 19.9573 47.9478 22.2066 46.4804C24.4561 45.013 25.5226 42.2773 24.8597 39.6745C24.807 39.4621 24.8693 39.237 25.0244 39.0824L25.0244 39.0824ZM20.3363 43.6755H17.3015L15.8047 41.1816L17.3015 38.6874H20.3363L21.8328 41.1816L20.3363 43.6755ZM22.7426 36.3762L36.4596 22.6592L37.3411 23.5408L23.6241 37.2578L22.7426 36.3762ZM42.3874 47.1747C43.7762 47.6968 45.342 47.3582 46.3912 46.3091C47.4404 45.2597 47.7792 43.6937 47.2568 42.3053L42.3874 47.1747Z" fill="#053F79"/>
<path d="M46.3918 40.9547L39.389 33.9491C38.6166 34.5984 37.4759 34.549 36.762 33.8359C36.048 33.123 35.9977 31.9827 36.6458 31.2095L35.6541 30.2166L30.3008 35.5701L31.2985 36.5677C32.0709 35.9185 33.2117 35.9677 33.9253 36.6805C34.6392 37.3936 34.6899 38.534 34.0416 39.3073L41.0385 46.3079C41.1148 46.3842 41.1954 46.455 41.2768 46.5238L46.6078 41.1927C46.5392 41.1112 46.4681 41.0309 46.3918 40.9547ZM42.6951 43.4926L36.4603 37.2578L37.3418 36.3761L43.5768 42.6113L42.6951 43.4926Z" fill="#053F79"/>
</svg>
