<svg width="40" height="39" viewBox="0 0 40 39" fill="none" xmlns="http://www.w3.org/2000/svg">
<path d="M5.62437 6.96921C5.74633 6.99985 5.8577 7.06294 5.94667 7.1518L15.8768 17.082L17.6737 15.2854L7.74336 5.35516C7.65434 5.26596 7.59117 5.15429 7.56058 5.03204L6.93562 2.5407L2.7925 0.172119L0.763672 2.20085L3.13299 6.34674L5.62437 6.96921Z" fill="white"/>
<path d="M14.4558 29.6204L30.2134 13.8627C30.2982 13.7778 30.4035 13.7164 30.5192 13.6843C30.6348 13.6522 30.7568 13.6506 30.8732 13.6796C32.9479 14.2113 35.1516 13.7506 36.8401 12.4332C38.5289 11.1158 39.5112 9.08981 39.4999 6.94821C39.4999 6.81778 39.4961 6.68636 39.4876 6.55377L35.8226 10.2183C35.7314 10.3095 35.6166 10.3736 35.491 10.4032C35.3655 10.4328 35.2342 10.4269 35.1118 10.3861L30.9433 8.99646C30.8409 8.96251 30.7479 8.90516 30.6716 8.82897C30.5953 8.75279 30.5378 8.65985 30.5036 8.55756L29.1143 4.38901C29.031 4.13973 29.096 3.86425 29.2821 3.67817L32.9471 0.013361C30.7401 -0.123946 28.6004 0.80329 27.1908 2.50685C25.7813 4.21078 25.272 6.48619 25.8202 8.62818C25.8494 8.74461 25.848 8.86664 25.816 8.98235C25.784 9.09806 25.7225 9.20349 25.6376 9.28835L9.88023 25.0449C9.79506 25.1293 9.68964 25.1905 9.57409 25.2225C9.45853 25.2545 9.33668 25.2564 9.22021 25.2279C8.67146 25.0868 8.10736 25.0142 7.54077 25.0118C4.5486 24.9921 1.87506 26.8783 0.889884 29.7043C-0.0947457 32.53 0.827392 35.6694 3.18398 37.5136C5.54056 39.3579 8.80956 39.4989 11.3159 37.8638C13.8225 36.2288 15.0109 33.1804 14.2723 30.2802C14.2135 30.0435 14.283 29.7927 14.4558 29.6204L14.4558 29.6204ZM9.23192 34.7384H5.85019L4.18235 31.9595L5.85019 29.1802H9.23192L10.8994 31.9595L9.23192 34.7384ZM11.9132 26.6049L27.1978 11.3203L28.1801 12.3027L12.8955 27.5873L11.9132 26.6049ZM33.8032 38.6375C35.3506 39.2193 37.0953 38.842 38.2645 37.673C39.4336 36.5037 39.8111 34.7587 39.229 33.2116L33.8032 38.6375Z" fill="white"/>
<path d="M38.2662 31.7066L30.4629 23.9003C29.6023 24.6238 28.3312 24.5688 27.5357 23.7742C26.74 22.9799 26.684 21.7092 27.4062 20.8476L26.3011 19.7412L20.3359 25.7066L21.4477 26.8183C22.3084 26.0948 23.5796 26.1496 24.3747 26.9439C25.1703 27.7384 25.2267 29.0093 24.5044 29.8709L32.301 37.6716C32.3861 37.7566 32.4758 37.8355 32.5665 37.9121L38.5069 31.9718C38.4304 31.8809 38.3513 31.7915 38.2662 31.7066ZM34.147 34.5345L27.1995 27.5871L28.1817 26.6047L35.1294 33.5525L34.147 34.5345Z" fill="white"/>
</svg>
