<svg width="24" height="25" viewBox="0 0 24 25" fill="none" xmlns="http://www.w3.org/2000/svg">
<path opacity="0.1" fill-rule="evenodd" clip-rule="evenodd" d="M0 12.5C0 5.87258 5.37258 0.5 12 0.5C18.6274 0.5 24 5.87258 24 12.5C24 19.1274 18.6274 24.5 12 24.5C5.37258 24.5 0 19.1274 0 12.5Z" fill="white"/>
<path fill-rule="evenodd" clip-rule="evenodd" d="M12.0002 6.1001C10.2621 6.1001 10.0439 6.1077 9.36125 6.13876C8.67991 6.16997 8.21484 6.27783 7.8079 6.4361C7.38696 6.59957 7.02989 6.81824 6.67415 7.17411C6.31815 7.52985 6.09948 7.88692 5.93548 8.30772C5.77681 8.71479 5.66881 9.18 5.63814 9.86107C5.60761 10.5437 5.59961 10.762 5.59961 12.5002C5.59961 14.2383 5.60734 14.4558 5.63828 15.1385C5.66961 15.8198 5.77748 16.2849 5.93561 16.6918C6.09921 17.1127 6.31788 17.4698 6.67375 17.8256C7.02936 18.1816 7.38643 18.4008 7.8071 18.5642C8.2143 18.7225 8.67951 18.8304 9.36072 18.8616C10.0434 18.8926 10.2614 18.9002 11.9994 18.9002C13.7377 18.9002 13.9552 18.8926 14.6378 18.8616C15.3192 18.8304 15.7848 18.7225 16.192 18.5642C16.6128 18.4008 16.9693 18.1816 17.3249 17.8256C17.6809 17.4698 17.8996 17.1127 18.0636 16.6919C18.2209 16.2849 18.3289 15.8197 18.3609 15.1386C18.3916 14.4559 18.3996 14.2383 18.3996 12.5002C18.3996 10.762 18.3916 10.5439 18.3609 9.8612C18.3289 9.17986 18.2209 8.71479 18.0636 8.30785C17.8996 7.88692 17.6809 7.52985 17.3249 7.17411C16.9689 6.81811 16.6129 6.59944 16.1916 6.4361C15.7836 6.27783 15.3182 6.16997 14.6369 6.13876C13.9542 6.1077 13.7369 6.1001 11.9982 6.1001H12.0002ZM11.426 7.25343C11.5964 7.25316 11.7866 7.25343 12.0002 7.25343C13.709 7.25343 13.9115 7.25956 14.5863 7.29023C15.2103 7.31876 15.549 7.42303 15.7746 7.51063C16.0733 7.62663 16.2862 7.7653 16.5101 7.9893C16.7341 8.2133 16.8728 8.42664 16.989 8.72531C17.0766 8.95064 17.181 9.28931 17.2094 9.91332C17.2401 10.588 17.2468 10.7907 17.2468 12.4987C17.2468 14.2067 17.2401 14.4094 17.2094 15.084C17.1809 15.708 17.0766 16.0467 16.989 16.2721C16.873 16.5707 16.7341 16.7834 16.5101 17.0073C16.2861 17.2313 16.0734 17.3699 15.7746 17.4859C15.5493 17.5739 15.2103 17.6779 14.5863 17.7065C13.9117 17.7371 13.709 17.7438 12.0002 17.7438C10.2912 17.7438 10.0887 17.7371 9.41402 17.7065C8.79002 17.6777 8.45134 17.5734 8.22561 17.4858C7.92694 17.3698 7.7136 17.2311 7.4896 17.0071C7.2656 16.7831 7.12693 16.5703 7.01066 16.2715C6.92306 16.0462 6.81866 15.7075 6.79026 15.0835C6.75959 14.4088 6.75346 14.2062 6.75346 12.4971C6.75346 10.788 6.75959 10.5864 6.79026 9.91172C6.81879 9.28771 6.92306 8.94904 7.01066 8.72344C7.12666 8.42477 7.2656 8.21143 7.4896 7.98743C7.7136 7.76343 7.92694 7.62476 8.22561 7.50849C8.45121 7.42049 8.79002 7.31649 9.41402 7.28783C10.0044 7.26116 10.2332 7.25316 11.426 7.25182V7.25343ZM15.4165 8.31611C14.9925 8.31611 14.6485 8.65971 14.6485 9.08385C14.6485 9.50785 14.9925 9.85185 15.4165 9.85185C15.8405 9.85185 16.1845 9.50785 16.1845 9.08385C16.1845 8.65984 15.8405 8.31611 15.4165 8.31611ZM12.0002 9.21345C10.1851 9.21345 8.71352 10.6851 8.71352 12.5001C8.71352 14.3152 10.1851 15.7862 12.0002 15.7862C13.8153 15.7862 15.2864 14.3152 15.2864 12.5001C15.2864 10.6851 13.8153 9.21345 12.0002 9.21345ZM12.0002 10.3668C13.1783 10.3668 14.1336 11.3219 14.1336 12.5001C14.1336 13.6783 13.1783 14.6335 12.0002 14.6335C10.8219 14.6335 9.86684 13.6783 9.86684 12.5001C9.86684 11.3219 10.8219 10.3668 12.0002 10.3668Z" fill="white"/>
</svg>
