<svg width="24" height="25" viewBox="0 0 24 25" fill="none" xmlns="http://www.w3.org/2000/svg">
<path opacity="0.1" fill-rule="evenodd" clip-rule="evenodd" d="M0 12.5C0 5.87258 5.37258 0.5 12 0.5C18.6274 0.5 24 5.87258 24 12.5C24 19.1274 18.6274 24.5 12 24.5C5.37258 24.5 0 19.1274 0 12.5Z" fill="white"/>
<path d="M11.9993 6.63916C8.7776 6.63916 6.16602 9.25086 6.16602 12.4725C6.16602 13.309 6.35268 14.1421 6.71318 14.9152C6.23484 17.3856 6.1841 17.6131 6.1841 17.6131C6.10594 18.0177 6.45359 18.3642 6.85901 18.2876C6.85901 18.2876 7.0801 18.2494 9.57501 17.7772C10.3281 18.1351 11.1628 18.3058 11.9993 18.3058C15.2211 18.3058 17.8327 15.6941 17.8327 12.4725C17.8327 9.25086 15.2211 6.63916 11.9993 6.63916ZM11.9993 7.80583C14.5765 7.80583 16.666 9.89515 16.666 12.4725C16.666 15.0498 14.5765 17.1392 11.9993 17.1392C11.2661 17.1392 10.562 16.967 9.92151 16.6469C9.80718 16.59 9.68177 16.5685 9.55636 16.5923C7.48552 16.9843 7.65002 16.9609 7.47852 16.9933C7.51235 16.8197 7.48318 16.9999 7.87984 14.9517C7.90434 14.8248 7.88276 14.6842 7.82501 14.5689C7.49951 13.9239 7.33268 13.2119 7.33268 12.4725C7.33268 9.89515 9.42218 7.80583 11.9993 7.80583ZM10.359 9.55583C9.81184 9.55583 9.37492 10.203 9.37492 10.7498C9.37492 11.4546 9.81242 12.6457 10.5416 13.3748C10.6203 13.4533 11.0462 13.8797 11.1249 13.9582C11.8541 14.6873 12.7536 15.1248 13.4583 15.1248C14.0054 15.1248 14.916 14.66 14.916 14.1131C14.916 13.5662 14.2971 13.0832 13.7499 13.0832C13.5679 13.0832 12.6527 13.3874 12.5833 13.3748C12.0023 13.27 11.2463 12.4956 11.1249 11.9165C11.108 11.8357 11.4166 10.9321 11.4166 10.7498C11.4166 10.203 10.9056 9.55583 10.359 9.55583Z" fill="white"/>
</svg>
