<svg width="24" height="25" viewBox="0 0 24 25" fill="none" xmlns="http://www.w3.org/2000/svg">
<path opacity="0.1" fill-rule="evenodd" clip-rule="evenodd" d="M0 12.5C0 5.87258 5.37258 0.5 12 0.5C18.6274 0.5 24 5.87258 24 12.5C24 19.1274 18.6274 24.5 12 24.5C5.37258 24.5 0 19.1274 0 12.5Z" fill="white"/>
<path d="M15.9492 7.80424C15.7375 7.75232 15.4968 7.7605 15.2019 7.84041C13.4932 8.30358 6.70091 10.5109 6.14196 10.7582C5.53278 11.0277 5.18126 11.5026 5.17584 12.1256C5.16861 12.9586 5.84002 13.6125 6.63417 13.5845C6.65972 13.5839 7.64235 13.5973 8.20188 13.6032C8.20188 13.6032 8.70133 16.1004 8.71341 16.1302C8.85918 16.4883 9.20113 16.5951 9.49612 16.4662L11.155 15.7364C11.3428 15.9213 12.6053 17.1411 12.7409 17.2502C13.1449 17.5745 13.4941 17.6766 13.9258 17.6877C14.621 17.7057 15.2282 17.2968 15.5482 16.6301C15.749 16.2118 16.6851 10.3546 16.7696 9.77358C16.9037 8.85133 16.8734 8.48908 16.4961 8.11399C16.3445 7.96349 16.1611 7.85557 15.9492 7.80424ZM15.6758 8.93532C15.6758 8.93532 15.7041 9.03857 15.6211 9.60907C15.3241 11.6519 14.6204 15.8315 14.4727 16.1739C14.3719 16.4084 14.1697 16.5268 13.944 16.5204C13.7454 16.5152 13.6465 16.4802 13.4701 16.3384C13.3793 16.2655 12.9709 15.8776 12.3946 15.317C12.3874 15.31 11.2451 14.1952 11.2451 14.1952C11.1337 14.0844 11.0291 14.0185 10.8098 14.0162C10.6823 14.0162 10.514 14.113 10.514 14.113L9.63676 14.8556L8.95947 12.9167L12.3946 11.4583C12.6906 11.3312 13.3848 11.054 13.2575 10.7582C13.1302 10.4619 12.8364 10.5943 12.5404 10.7215L8.56646 12.4359C8.34019 12.4347 6.65406 12.4155 6.59771 12.4178C6.46792 12.4219 6.34105 12.2947 6.34251 12.1256C6.34367 11.9902 6.40335 11.9098 6.61591 11.8158C7.1086 11.5977 13.8189 9.42124 15.4751 8.97265C15.6313 8.93007 15.6758 8.93532 15.6758 8.93532Z" fill="white"/>
</svg>
