<svg width="24" height="25" viewBox="0 0 24 25" fill="none" xmlns="http://www.w3.org/2000/svg">
<path opacity="0.1" fill-rule="evenodd" clip-rule="evenodd" d="M0 12.5C0 5.87258 5.37258 0.5 12 0.5C18.6274 0.5 24 5.87258 24 12.5C24 19.1274 18.6274 24.5 12 24.5C5.37258 24.5 0 19.1274 0 12.5Z" fill="white"/>
<path d="M12.5436 18.4999V13.4823H14.6074L14.9164 11.5269H12.5436V10.2784C12.5436 9.71223 12.7362 9.32638 13.7311 9.32638L15 9.3259V7.57697C14.7805 7.55322 14.0273 7.5 13.151 7.5C11.3216 7.5 10.0692 8.41125 10.0692 10.0848V11.5269H8V13.4824H10.0691V18.5L12.5436 18.4999Z" fill="white"/>
</svg>
