<svg width="28" height="26" viewBox="0 0 28 26" fill="none" xmlns="http://www.w3.org/2000/svg">
<path d="M13.0489 1.42705C13.3483 0.505737 14.6517 0.50574 14.9511 1.42705L17.3677 8.86475C17.5016 9.27677 17.8855 9.55573 18.3188 9.55573H26.1392C27.1079 9.55573 27.5107 10.7953 26.727 11.3647L20.4001 15.9615C20.0496 16.2161 19.903 16.6675 20.0369 17.0795L22.4535 24.5172C22.7529 25.4385 21.6984 26.2047 20.9147 25.6353L14.5878 21.0385C14.2373 20.7839 13.7627 20.7839 13.4122 21.0385L7.08533 25.6353C6.30162 26.2047 5.24714 25.4385 5.54649 24.5172L7.96315 17.0795C8.09702 16.6675 7.95036 16.2161 7.59987 15.9615L1.27299 11.3647C0.489277 10.7953 0.892056 9.55573 1.86078 9.55573H9.68123C10.1145 9.55573 10.4984 9.27677 10.6323 8.86475L13.0489 1.42705Z" fill="#FFD14A"/>
</svg>
