<svg width="44" height="54" viewBox="0 0 44 54" fill="none" xmlns="http://www.w3.org/2000/svg">
<path d="M22 0C16.1672 0.00643174 10.5753 2.28422 6.45089 6.33365C2.32651 10.3831 0.0065508 15.8734 0 21.6002C0 38.0649 20.5792 53.1886 21.4555 53.824C21.6132 53.9383 21.804 54 22 54C22.196 54 22.3868 53.9383 22.5445 53.824C23.4208 53.1886 44 38.0649 44 21.6002C43.9935 15.8734 41.6735 10.3831 37.5491 6.33365C33.4247 2.28422 27.8328 0.00643174 22 0ZM22 37.8003C18.7366 37.8003 15.5465 36.8502 12.8331 35.0701C10.1197 33.29 8.00483 30.7599 6.75599 27.7997C5.50714 24.8395 5.18039 21.5822 5.81704 18.4397C6.4537 15.2972 8.02517 12.4106 10.3327 10.1449C12.6403 7.87932 15.5803 6.33641 18.781 5.71132C21.9817 5.08624 25.2993 5.40705 28.3143 6.6332C31.3293 7.85935 33.9062 9.93576 35.7192 12.5999C37.5323 15.264 38.5 18.3961 38.5 21.6002C38.4951 25.8952 36.7552 30.013 33.6619 33.0501C30.5686 36.0872 26.3746 37.7955 22 37.8003ZM22.165 25.4162L16.995 30.4922C16.3355 31.1378 15.4421 31.5003 14.5108 31.5002H14.5017C13.5745 31.4953 12.6868 31.1315 12.0312 30.4878C11.3756 29.8441 11.0051 28.9725 11 28.0622C10.9979 27.6078 11.0875 27.1575 11.2637 26.7373C11.4399 26.3171 11.6993 25.9354 12.0267 25.6142L17.1967 20.5382C18.1325 22.744 19.9183 24.4974 22.165 25.4162ZM32.8442 15.6178C33.168 17.1345 32.9844 18.7133 32.3206 20.1192C31.6568 21.5252 30.5483 22.6831 29.1602 23.4206C27.7721 24.1581 26.1785 24.4358 24.6167 24.2124C23.0549 23.9889 21.6083 23.2763 20.4922 22.1805C19.3762 21.0848 18.6503 19.6645 18.4228 18.131C18.1952 16.5976 18.478 15.033 19.2292 13.6701C19.9804 12.3072 21.1597 11.2189 22.5917 10.5672C24.0236 9.91544 25.6317 9.73513 27.1764 10.0531C27.3376 10.0881 27.4862 10.1651 27.6066 10.2759C27.7271 10.3867 27.815 10.5273 27.8611 10.6829C27.9072 10.8385 27.9098 11.0034 27.8687 11.1604C27.8276 11.3173 27.7443 11.4605 27.6274 11.575L25.0149 14.14C24.8453 14.307 24.75 14.5333 24.75 14.7691V17.1001C24.7507 17.3386 24.8475 17.5671 25.0193 17.7357C25.191 17.9044 25.4238 17.9994 25.6667 18.0001H28.0408C28.2815 18.0001 28.5123 17.9062 28.6825 17.7391L31.2941 15.175C31.4107 15.0605 31.5565 14.9789 31.7162 14.9387C31.876 14.8985 32.0438 14.9011 32.2021 14.9464C32.3604 14.9916 32.5035 15.0778 32.6163 15.1959C32.7291 15.3141 32.8075 15.4598 32.8433 15.6178H32.8442Z" fill="white"/>
</svg>
